<svg width="381" height="127" viewBox="0 0 381 127" fill="none" xmlns="http://www.w3.org/2000/svg">
<mask id="path-1-outside-1_636_1654" maskUnits="userSpaceOnUse" x="155.001" y="34.8047" width="220" height="40" fill="black">
<rect fill="white" x="155.001" y="34.8047" width="220" height="40"/>
<path d="M179.458 47.4124C179.515 45.9935 179.1 44.8981 178.215 44.1262C177.341 43.3543 176.019 42.9684 174.248 42.9684C173.045 42.9684 172 43.1386 171.115 43.4792C170.23 43.8084 169.52 44.2681 168.987 44.8584C168.464 45.4373 168.141 46.107 168.016 46.8675C167.891 47.4918 167.931 48.0367 168.135 48.5021C168.351 48.9675 168.686 49.3705 169.14 49.711C169.605 50.0402 170.156 50.3296 170.791 50.5794C171.427 50.8177 172.102 51.0221 172.818 51.1923L175.814 51.9415C177.279 52.282 178.595 52.7361 179.765 53.3036C180.945 53.8712 181.933 54.5693 182.727 55.3979C183.533 56.2266 184.101 57.2028 184.43 58.3265C184.759 59.4503 184.804 60.7387 184.566 62.1916C184.203 64.3256 183.357 66.1759 182.029 67.7424C180.701 69.2975 178.959 70.5064 176.802 71.3691C174.645 72.2204 172.148 72.6461 169.31 72.6461C166.495 72.6461 164.117 72.2147 162.176 71.352C160.235 70.4893 158.822 69.2123 157.936 67.521C157.062 65.8183 156.801 63.7127 157.153 61.2041H164.287C164.162 62.3732 164.333 63.3494 164.798 64.1327C165.275 64.9046 165.984 65.4891 166.926 65.8864C167.868 66.2724 168.975 66.4653 170.247 66.4653C171.507 66.4653 172.625 66.2837 173.601 65.9205C174.588 65.5572 175.389 65.0521 176.002 64.4051C176.615 63.7581 176.989 63.0146 177.125 62.1746C177.262 61.3914 177.142 60.733 176.768 60.1995C176.393 59.666 175.792 59.2119 174.963 58.8373C174.146 58.4514 173.13 58.1109 171.915 57.8157L168.271 56.8622C165.456 56.1471 163.328 55.029 161.886 53.508C160.445 51.9869 159.928 49.938 160.337 47.3613C160.7 45.25 161.58 43.4054 162.976 41.8276C164.384 40.2384 166.154 39.0068 168.288 38.1328C170.434 37.2474 172.778 36.8047 175.321 36.8047C177.909 36.8047 180.094 37.2531 181.876 38.1498C183.658 39.0352 184.958 40.2725 185.775 41.8616C186.592 43.4508 186.842 45.3011 186.524 47.4124H179.458ZM193.71 43.36L194.732 37.2814H223.371L222.349 43.36H211.674L206.906 72.1523H199.619L204.386 43.36H193.71ZM224.696 72.1523L230.485 37.2814H244.242C246.876 37.2814 249.044 37.7468 250.747 38.6776C252.461 39.6084 253.664 40.9308 254.356 42.6449C255.06 44.3476 255.225 46.3567 254.85 48.6724C254.464 50.988 253.63 52.9745 252.347 54.6317C251.076 56.289 249.419 57.566 247.375 58.4628C245.343 59.3481 242.988 59.7908 240.309 59.7908H231.098L232.119 53.8655H240.122C241.529 53.8655 242.733 53.6726 243.732 53.2866C244.73 52.9007 245.519 52.3218 246.098 51.5499C246.689 50.778 247.075 49.8188 247.256 48.6724C247.449 47.5032 247.381 46.527 247.052 45.7437C246.723 44.9492 246.127 44.3476 245.264 43.9389C244.401 43.5189 243.266 43.3089 241.859 43.3089H236.887L232.068 72.1523H224.696ZM246.149 56.2833L252.194 72.1523H244.055L238.198 56.2833H246.149ZM258.839 72.1523L264.629 37.2814H288.126L287.104 43.36H270.98L269.617 51.6691H284.533L283.511 57.7476H268.596L267.234 66.0737H283.426L282.405 72.1523H258.839ZM296.606 72.1523H288.705L306.532 37.2814H316.033L322.265 72.1523H314.365L310.125 45.25H309.853L296.606 72.1523ZM298.411 58.4457H317.072L316.084 64.2008H297.423L298.411 58.4457ZM334.649 37.2814H343.741L349.479 60.7103H349.888L363.356 37.2814H372.448L366.659 72.1523H359.508L363.288 49.4556H362.981L350.245 71.982H345.358L340.114 49.3705H339.825L336.011 72.1523H328.86L334.649 37.2814Z"/>
</mask>
<path d="M179.458 47.4124C179.515 45.9935 179.1 44.8981 178.215 44.1262C177.341 43.3543 176.019 42.9684 174.248 42.9684C173.045 42.9684 172 43.1386 171.115 43.4792C170.23 43.8084 169.52 44.2681 168.987 44.8584C168.464 45.4373 168.141 46.107 168.016 46.8675C167.891 47.4918 167.931 48.0367 168.135 48.5021C168.351 48.9675 168.686 49.3705 169.14 49.711C169.605 50.0402 170.156 50.3296 170.791 50.5794C171.427 50.8177 172.102 51.0221 172.818 51.1923L175.814 51.9415C177.279 52.282 178.595 52.7361 179.765 53.3036C180.945 53.8712 181.933 54.5693 182.727 55.3979C183.533 56.2266 184.101 57.2028 184.43 58.3265C184.759 59.4503 184.804 60.7387 184.566 62.1916C184.203 64.3256 183.357 66.1759 182.029 67.7424C180.701 69.2975 178.959 70.5064 176.802 71.3691C174.645 72.2204 172.148 72.6461 169.31 72.6461C166.495 72.6461 164.117 72.2147 162.176 71.352C160.235 70.4893 158.822 69.2123 157.936 67.521C157.062 65.8183 156.801 63.7127 157.153 61.2041H164.287C164.162 62.3732 164.333 63.3494 164.798 64.1327C165.275 64.9046 165.984 65.4891 166.926 65.8864C167.868 66.2724 168.975 66.4653 170.247 66.4653C171.507 66.4653 172.625 66.2837 173.601 65.9205C174.588 65.5572 175.389 65.0521 176.002 64.4051C176.615 63.7581 176.989 63.0146 177.125 62.1746C177.262 61.3914 177.142 60.733 176.768 60.1995C176.393 59.666 175.792 59.2119 174.963 58.8373C174.146 58.4514 173.13 58.1109 171.915 57.8157L168.271 56.8622C165.456 56.1471 163.328 55.029 161.886 53.508C160.445 51.9869 159.928 49.938 160.337 47.3613C160.7 45.25 161.58 43.4054 162.976 41.8276C164.384 40.2384 166.154 39.0068 168.288 38.1328C170.434 37.2474 172.778 36.8047 175.321 36.8047C177.909 36.8047 180.094 37.2531 181.876 38.1498C183.658 39.0352 184.958 40.2725 185.775 41.8616C186.592 43.4508 186.842 45.3011 186.524 47.4124H179.458ZM193.71 43.36L194.732 37.2814H223.371L222.349 43.36H211.674L206.906 72.1523H199.619L204.386 43.36H193.71ZM224.696 72.1523L230.485 37.2814H244.242C246.876 37.2814 249.044 37.7468 250.747 38.6776C252.461 39.6084 253.664 40.9308 254.356 42.6449C255.06 44.3476 255.225 46.3567 254.85 48.6724C254.464 50.988 253.63 52.9745 252.347 54.6317C251.076 56.289 249.419 57.566 247.375 58.4628C245.343 59.3481 242.988 59.7908 240.309 59.7908H231.098L232.119 53.8655H240.122C241.529 53.8655 242.733 53.6726 243.732 53.2866C244.73 52.9007 245.519 52.3218 246.098 51.5499C246.689 50.778 247.075 49.8188 247.256 48.6724C247.449 47.5032 247.381 46.527 247.052 45.7437C246.723 44.9492 246.127 44.3476 245.264 43.9389C244.401 43.5189 243.266 43.3089 241.859 43.3089H236.887L232.068 72.1523H224.696ZM246.149 56.2833L252.194 72.1523H244.055L238.198 56.2833H246.149ZM258.839 72.1523L264.629 37.2814H288.126L287.104 43.36H270.98L269.617 51.6691H284.533L283.511 57.7476H268.596L267.234 66.0737H283.426L282.405 72.1523H258.839ZM296.606 72.1523H288.705L306.532 37.2814H316.033L322.265 72.1523H314.365L310.125 45.25H309.853L296.606 72.1523ZM298.411 58.4457H317.072L316.084 64.2008H297.423L298.411 58.4457ZM334.649 37.2814H343.741L349.479 60.7103H349.888L363.356 37.2814H372.448L366.659 72.1523H359.508L363.288 49.4556H362.981L350.245 71.982H345.358L340.114 49.3705H339.825L336.011 72.1523H328.86L334.649 37.2814Z" stroke="#8A54FF" stroke-width="4" mask="url(#path-1-outside-1_636_1654)"/>
<path d="M286.275 56.2896H285.427L285.289 57.1268L281.288 81.3859C281.112 82.4004 280.814 83.2142 280.419 83.8537L280.419 83.8536L280.413 83.8628C280.028 84.5007 279.56 84.9547 279.013 85.2588C278.464 85.5637 277.818 85.7289 277.047 85.7289C276.326 85.7289 275.806 85.5847 275.433 85.3606C275.071 85.1437 274.814 84.8371 274.651 84.3983C274.492 83.9409 274.431 83.3132 274.532 82.4726L274.667 81.353H273.539H266.252H265.401L265.265 82.1933C264.869 84.6374 265.046 86.7833 265.917 88.5499L265.917 88.5499L265.919 88.5552C266.784 90.284 268.127 91.5765 269.912 92.4179L269.914 92.4191C271.671 93.2416 273.683 93.6371 275.923 93.6371C278.412 93.6371 280.697 93.1698 282.761 92.217L282.766 92.215C284.825 91.2521 286.538 89.8856 287.887 88.1191L287.889 88.1165C289.245 86.329 290.12 84.223 290.53 81.8233L290.531 81.8176L294.549 57.4523L294.741 56.2896H293.563H286.275ZM302.277 93.1604H302.899L303.174 92.6022L306.815 85.2089H317.928L319.048 92.3161L319.181 93.1604H320.036H327.936H329.131L328.921 91.9845L322.689 57.1136L322.542 56.2896H321.705H312.204H311.592L311.313 56.8344L293.486 91.7052L292.742 93.1604H294.377H302.277ZM316.706 77.4538H310.633L315.234 68.1113L316.706 77.4538ZM340.32 56.2896H339.472L339.333 57.1258L333.544 91.9966L333.351 93.1604H334.531H341.682H342.529L342.668 92.3255L345.776 73.7633L350.056 92.2161L350.235 92.9901H351.03H355.916H356.5L356.787 92.4823L367.17 74.1173L364.193 91.9961L363.999 93.1604H365.179H372.33H373.178L373.317 92.3242L379.106 57.4533L379.299 56.2896H378.119H369.027H368.448L368.16 56.7912L355.65 78.5539L350.384 57.0517L350.197 56.2896H349.412H340.32Z" stroke="#4DDAA7" stroke-width="2"/>
<g opacity="0.3" filter="url(#filter0_f_636_1654)">
<path d="M34.0019 24.3086H92.0062C97.5291 24.3086 102.006 28.7858 102.006 34.3086V40.7883L85.5265 52.3242V50.7883C85.5265 45.2655 81.0493 40.7883 75.5265 40.7883H52.2923L63.6506 51.126L50.307 64.4682L24.002 40.7883V34.3086C24.002 28.7857 28.4791 24.3086 34.0019 24.3086Z" fill="#8A54FF"/>
<path d="M92.0142 102.314L34.0001 102.314C28.4772 102.314 24 97.8372 24 92.3144V85.8324L40.4818 74.2966V75.8324C40.4818 81.3552 44.959 85.8324 50.4818 85.8324H73.716L62.5204 75.5424L75.8539 62.2142L102.014 85.8324L102.014 92.3138C102.014 97.8366 97.537 102.314 92.0142 102.314Z" fill="#4DDAA7"/>
</g>
<path d="M34.6279 24.3086H92.6322C98.1551 24.3086 102.632 28.7858 102.632 34.3086V40.7883L86.1525 52.3242V46.7883C86.1525 43.4746 83.4662 40.7883 80.1525 40.7883H52.9183L64.2766 51.126L50.9329 64.4682L27.9375 43.7676C25.8308 41.8712 24.6279 39.1699 24.6279 36.3354V34.3086C24.6279 28.7857 29.1051 24.3086 34.6279 24.3086Z" fill="#8A54FF"/>
<path d="M92.6402 102.314L34.6261 102.314C29.1032 102.314 24.626 97.8372 24.626 92.3144V85.8324L41.1078 74.2966V79.8324C41.1078 83.1461 43.7941 85.8324 47.1078 85.8324H74.342L63.1464 75.5424L76.4799 62.2142L99.3413 82.8542C101.441 84.7503 102.64 87.4472 102.64 90.2766L102.64 92.3138C102.64 97.8366 98.163 102.314 92.6402 102.314Z" fill="#4DDAA7"/>
<defs>
<filter id="filter0_f_636_1654" x="0" y="0.308594" width="126.014" height="126.006" filterUnits="userSpaceOnUse" color-interpolation-filters="sRGB">
<feFlood flood-opacity="0" result="BackgroundImageFix"/>
<feBlend mode="normal" in="SourceGraphic" in2="BackgroundImageFix" result="shape"/>
<feGaussianBlur stdDeviation="12" result="effect1_foregroundBlur_636_1654"/>
</filter>
</defs>
</svg>
